<svg width="16" height="19" viewBox="0 0 16 19" fill="none" xmlns="http://www.w3.org/2000/svg">
<path fill-rule="evenodd" clip-rule="evenodd" d="M8.89071 17.708C11.0064 16.2644 15.8333 12.4716 15.8333 7.91667C15.8333 3.54441 12.2889 0 7.91667 0C3.54441 0 0 3.54441 0 7.91667C0 12.4716 4.82692 16.2644 6.94262 17.708C7.53425 18.1117 8.29908 18.1117 8.89071 17.708ZM7.91666 10.4165C9.29737 10.4165 10.4167 9.29722 10.4167 7.9165C10.4167 6.53579 9.29737 5.4165 7.91666 5.4165C6.53594 5.4165 5.41666 6.53579 5.41666 7.9165C5.41666 9.29722 6.53594 10.4165 7.91666 10.4165Z" fill="white"/>
</svg>
