<svg width="20" height="21" viewBox="0 0 20 21" fill="none" xmlns="http://www.w3.org/2000/svg">
<path d="M13.4307 13.2336L12.9152 14.0068C12.8123 14.1612 12.6762 14.2929 12.4969 14.3403C11.9095 14.4955 10.3499 14.5656 7.97551 12.1912C5.60112 9.81679 5.6712 8.25721 5.82642 7.66977C5.87381 7.49043 6.0055 7.35434 6.15984 7.25145L6.93309 6.73595C7.50879 6.35215 7.66436 5.57432 7.28056 4.99862L5.82015 2.80801C5.48515 2.30551 4.83934 2.11353 4.28424 2.35143L3.62545 2.63377C3.12499 2.84825 2.71675 3.23318 2.47325 3.72018C2.26981 4.12706 2.11214 4.55552 2.09077 5.00991C2.02345 6.4419 2.33744 9.96987 6.26714 13.8996C10.1968 17.8293 13.7248 18.1432 15.1568 18.0759C15.6112 18.0545 16.0396 17.8969 16.4465 17.6934C16.9335 17.4499 17.3184 17.0417 17.5329 16.5412L17.8152 15.8824C18.0531 15.3273 17.8612 14.6815 17.3587 14.3465L15.1681 12.8861C14.5924 12.5023 13.8145 12.6579 13.4307 13.2336Z" fill="white"/>
</svg>
