<svg width="50" height="50" viewBox="0 0 50 50" fill="none" xmlns="http://www.w3.org/2000/svg">
<rect width="50" height="50" fill="#1CF2D4"/>
<path d="M17.0171 38.31C15.1984 38.31 13.5347 38.0103 12.0261 37.411C10.5174 36.791 9.21541 35.9333 8.12007 34.838C7.04541 33.722 6.20841 32.4097 5.60907 30.901C5.00974 29.3717 4.71007 27.6977 4.71007 25.879C4.71007 24.0603 5.00974 22.3967 5.60907 20.888C6.20841 19.3793 7.04541 18.0773 8.12007 16.982C9.21541 15.866 10.5174 15.0083 12.0261 14.409C13.5347 13.789 15.1984 13.479 17.0171 13.479C18.8357 13.479 20.4891 13.789 21.9771 14.409C23.4857 15.0083 24.7877 15.866 25.8831 16.982C26.9784 18.0773 27.8257 19.3793 28.4251 20.888C29.0244 22.3967 29.3241 24.0603 29.3241 25.879C29.3241 27.6977 29.0244 29.3717 28.4251 30.901C27.8257 32.4097 26.9784 33.722 25.8831 34.838C24.7877 35.9333 23.4857 36.791 21.9771 37.411C20.4891 38.0103 18.8357 38.31 17.0171 38.31ZM17.0171 35.396C18.3604 35.396 19.5901 35.1583 20.7061 34.683C21.8427 34.187 22.8244 33.5153 23.6511 32.668C24.4777 31.8 25.1081 30.7873 25.5421 29.63C25.9967 28.4727 26.2241 27.2223 26.2241 25.879C26.2241 24.5357 25.9967 23.2853 25.5421 22.128C25.1081 20.9707 24.4777 19.9683 23.6511 19.121C22.8244 18.253 21.8427 17.5813 20.7061 17.106C19.5901 16.6307 18.3604 16.393 17.0171 16.393C15.6737 16.393 14.4337 16.6307 13.2971 17.106C12.1811 17.5813 11.2097 18.253 10.3831 19.121C9.57707 19.9683 8.94674 20.9707 8.49207 22.128C8.03741 23.2853 7.81007 24.5357 7.81007 25.879C7.81007 27.2223 8.03741 28.4727 8.49207 29.63C8.94674 30.7873 9.57707 31.8 10.3831 32.668C11.2097 33.5153 12.1811 34.187 13.2971 34.683C14.4337 35.1583 15.6737 35.396 17.0171 35.396Z" fill="#333333"/>
<path d="M39.2378 38C38.2045 38 37.2745 37.7417 36.4478 37.225C35.6211 36.6877 34.9701 35.9643 34.4948 35.055C34.0195 34.1457 33.7818 33.1227 33.7818 31.986V17.199C33.7818 16.7443 33.9265 16.3723 34.2158 16.083C34.5051 15.7937 34.8771 15.649 35.3318 15.649C35.7865 15.649 36.1585 15.7937 36.4478 16.083C36.7371 16.3723 36.8818 16.7443 36.8818 17.199V31.986C36.8818 32.8127 37.1091 33.505 37.5638 34.063C38.0185 34.621 38.5765 34.9 39.2378 34.9H40.2918C40.6638 34.9 40.9738 35.0447 41.2218 35.334C41.4905 35.6233 41.6248 35.9953 41.6248 36.45C41.6248 36.9047 41.4491 37.2767 41.0978 37.566C40.7671 37.8553 40.3331 38 39.7958 38H39.2378ZM32.3558 24.329C31.9218 24.329 31.5705 24.205 31.3018 23.957C31.0331 23.709 30.8988 23.399 30.8988 23.027C30.8988 22.6137 31.0331 22.283 31.3018 22.035C31.5705 21.787 31.9218 21.663 32.3558 21.663H39.5168C39.9508 21.663 40.3021 21.787 40.5708 22.035C40.8395 22.283 40.9738 22.6137 40.9738 23.027C40.9738 23.399 40.8395 23.709 40.5708 23.957C40.3021 24.205 39.9508 24.329 39.5168 24.329H32.3558Z" fill="#333333"/>
<path d="M36.89 15C36.89 14.144 36.1961 13.45 35.34 13.45C34.484 13.45 33.79 14.144 33.79 15H36.89ZM36.89 18.5V15H33.79V18.5H36.89Z" fill="#333333"/>
<path d="M21 23L42 23" stroke="#333333" stroke-width="3" stroke-linecap="round"/>
<g clip-path="url(#clip0_201_683)">
<path d="M17.0171 38.31C15.1984 38.31 13.5347 38.0103 12.0261 37.411C10.5174 36.791 9.21541 35.9333 8.12007 34.838C7.04541 33.722 6.20841 32.4097 5.60907 30.901C5.00974 29.3717 4.71007 27.6977 4.71007 25.879C4.71007 24.0603 5.00974 22.3967 5.60907 20.888C6.20841 19.3793 7.04541 18.0773 8.12007 16.982C9.21541 15.866 10.5174 15.0083 12.0261 14.409C13.5347 13.789 15.1984 13.479 17.0171 13.479C18.8357 13.479 20.4891 13.789 21.9771 14.409C23.4857 15.0083 24.7877 15.866 25.8831 16.982C26.9784 18.0773 27.8257 19.3793 28.4251 20.888C29.0244 22.3967 29.3241 24.0603 29.3241 25.879C29.3241 27.6977 29.0244 29.3717 28.4251 30.901C27.8257 32.4097 26.9784 33.722 25.8831 34.838C24.7877 35.9333 23.4857 36.791 21.9771 37.411C20.4891 38.0103 18.8357 38.31 17.0171 38.31ZM17.0171 35.396C18.3604 35.396 19.5901 35.1583 20.7061 34.683C21.8427 34.187 22.8244 33.5153 23.6511 32.668C24.4777 31.8 25.1081 30.7873 25.5421 29.63C25.9967 28.4727 26.2241 27.2223 26.2241 25.879C26.2241 24.5357 25.9967 23.2853 25.5421 22.128C25.1081 20.9707 24.4777 19.9683 23.6511 19.121C22.8244 18.253 21.8427 17.5813 20.7061 17.106C19.5901 16.6307 18.3604 16.393 17.0171 16.393C15.6737 16.393 14.4337 16.6307 13.2971 17.106C12.1811 17.5813 11.2097 18.253 10.3831 19.121C9.57707 19.9683 8.94674 20.9707 8.49207 22.128C8.03741 23.2853 7.81007 24.5357 7.81007 25.879C7.81007 27.2223 8.03741 28.4727 8.49207 29.63C8.94674 30.7873 9.57707 31.8 10.3831 32.668C11.2097 33.5153 12.1811 34.187 13.2971 34.683C14.4337 35.1583 15.6737 35.396 17.0171 35.396Z" fill="#333333"/>
</g>
<path d="M44.9643 29.6746C44.7846 28.8659 43.9833 28.356 43.1746 28.5357C42.3659 28.7154 41.856 29.5167 42.0357 30.3254L44.9643 29.6746ZM40.2567 37.9779C41.6014 37.7443 43.1487 37.1065 44.1771 35.6639C45.2227 34.197 45.5238 32.1926 44.9643 29.6746L42.0357 30.3254C42.4762 32.3074 42.1348 33.3606 41.7342 33.9225C41.3164 34.5087 40.6137 34.8709 39.7433 35.0221L40.2567 37.9779Z" fill="#333333"/>
<defs>
<clipPath id="clip0_201_683">
<rect width="15" height="31" fill="white" transform="translate(2 12)"/>
</clipPath>
</defs>
</svg>
