<svg width="122" height="26" viewBox="0 0 122 26" fill="none" xmlns="http://www.w3.org/2000/svg">
<path d="M13.0039 25.31C11.1852 25.31 9.52156 25.0103 8.01289 24.411C6.50422 23.791 5.20222 22.9333 4.10689 21.838C3.03222 20.722 2.19522 19.4097 1.59589 17.901C0.996557 16.3717 0.696891 14.6977 0.696891 12.879C0.696891 11.0603 0.996557 9.39667 1.59589 7.888C2.19522 6.37933 3.03222 5.07733 4.10689 3.982C5.20222 2.866 6.50422 2.00833 8.01289 1.409C9.52156 0.788999 11.1852 0.479 13.0039 0.479C14.8226 0.479 16.4759 0.788999 17.9639 1.409C19.4726 2.00833 20.7746 2.866 21.8699 3.982C22.9652 5.07733 23.8126 6.37933 24.4119 7.888C25.0112 9.39667 25.3109 11.0603 25.3109 12.879C25.3109 14.6977 25.0112 16.3717 24.4119 17.901C23.8126 19.4097 22.9652 20.722 21.8699 21.838C20.7746 22.9333 19.4726 23.791 17.9639 24.411C16.4759 25.0103 14.8226 25.31 13.0039 25.31ZM13.0039 22.396C14.3472 22.396 15.5769 22.1583 16.6929 21.683C17.8296 21.187 18.8112 20.5153 19.6379 19.668C20.4646 18.8 21.0949 17.7873 21.5289 16.63C21.9836 15.4727 22.2109 14.2223 22.2109 12.879C22.2109 11.5357 21.9836 10.2853 21.5289 9.128C21.0949 7.97067 20.4646 6.96833 19.6379 6.121C18.8112 5.253 17.8296 4.58133 16.6929 4.106C15.5769 3.63067 14.3472 3.393 13.0039 3.393C11.6606 3.393 10.4206 3.63067 9.28389 4.106C8.16789 4.58133 7.19656 5.253 6.36989 6.121C5.56389 6.96833 4.93356 7.97067 4.47889 9.128C4.02422 10.2853 3.79689 11.5357 3.79689 12.879C3.79689 14.2223 4.02422 15.4727 4.47889 16.63C4.93356 17.7873 5.56389 18.8 6.36989 19.668C7.19656 20.5153 8.16789 21.187 9.28389 21.683C10.4206 22.1583 11.6606 22.396 13.0039 22.396ZM36.2197 25C35.1864 25 34.2564 24.7417 33.4297 24.225C32.6031 23.6877 31.9521 22.9643 31.4767 22.055C31.0014 21.1457 30.7637 20.1227 30.7637 18.986V4.199C30.7637 3.74433 30.9084 3.37233 31.1977 3.083C31.4871 2.79367 31.8591 2.649 32.3137 2.649C32.7684 2.649 33.1404 2.79367 33.4297 3.083C33.7191 3.37233 33.8637 3.74433 33.8637 4.199V18.986C33.8637 19.8127 34.0911 20.505 34.5457 21.063C35.0004 21.621 35.5584 21.9 36.2197 21.9H37.2737C37.6457 21.9 37.9557 22.0447 38.2037 22.334C38.4724 22.6233 38.6067 22.9953 38.6067 23.45C38.6067 23.9047 38.4311 24.2767 38.0797 24.566C37.7491 24.8553 37.3151 25 36.7777 25H36.2197ZM29.3377 11.329C28.9037 11.329 28.5524 11.205 28.2837 10.957C28.0151 10.709 27.8807 10.399 27.8807 10.027C27.8807 9.61367 28.0151 9.283 28.2837 9.035C28.5524 8.787 28.9037 8.663 29.3377 8.663H36.4987C36.9327 8.663 37.2841 8.787 37.5527 9.035C37.8214 9.283 37.9557 9.61367 37.9557 10.027C37.9557 10.399 37.8214 10.709 37.5527 10.957C37.2841 11.205 36.9327 11.329 36.4987 11.329H29.3377ZM49.3751 25C47.8251 25 46.4508 24.6797 45.2521 24.039C44.0535 23.3777 43.1131 22.489 42.4311 21.373C41.7491 20.2363 41.4081 18.9653 41.4081 17.56C41.4081 17.0847 41.5425 16.7023 41.8111 16.413C42.1005 16.103 42.4415 15.948 42.8341 15.948C43.2475 15.948 43.5885 16.103 43.8571 16.413C44.1258 16.7023 44.2601 17.0847 44.2601 17.56C44.2601 18.4073 44.4771 19.1927 44.9111 19.916C45.3451 20.6187 45.9341 21.187 46.6781 21.621C47.4221 22.0343 48.2591 22.241 49.1891 22.241C50.5531 22.241 51.6485 21.869 52.4751 21.125C53.3225 20.3603 53.7461 19.296 53.7461 17.932C53.7461 17.064 53.5601 16.289 53.1881 15.607C52.8161 14.9043 52.3098 14.3463 51.6691 13.933C51.0285 13.5197 50.3051 13.313 49.4991 13.313C49.0445 13.313 48.6621 13.158 48.3521 12.848C48.0628 12.538 47.9181 12.1557 47.9181 11.701C47.9181 11.2463 48.0628 10.8743 48.3521 10.585C48.6621 10.275 49.0445 10.12 49.4991 10.12C50.0778 10.12 50.6358 9.97533 51.1731 9.686C51.7105 9.376 52.1548 8.973 52.5061 8.477C52.8575 7.96033 53.0331 7.38167 53.0331 6.741C53.0331 5.83167 52.7025 5.067 52.0411 4.447C51.3798 3.827 50.5325 3.517 49.4991 3.517C48.7138 3.517 47.9905 3.672 47.3291 3.982C46.6885 4.292 46.1718 4.70533 45.7791 5.222C45.4071 5.73867 45.2211 6.31733 45.2211 6.958C45.2211 7.43333 45.0868 7.83633 44.8181 8.167C44.5495 8.477 44.2085 8.632 43.7951 8.632C43.4025 8.632 43.0615 8.48733 42.7721 8.198C42.5035 7.888 42.3691 7.50567 42.3691 7.051C42.3691 5.85233 42.6791 4.77767 43.2991 3.827C43.9191 2.87633 44.7665 2.13233 45.8411 1.595C46.9158 1.037 48.1145 0.757998 49.4371 0.757998C50.6565 0.757998 51.7518 1.02666 52.7231 1.564C53.7151 2.08067 54.4901 2.79367 55.0481 3.703C55.6268 4.59167 55.9161 5.60433 55.9161 6.741C55.9161 7.547 55.7301 8.26 55.3581 8.88C55.0068 9.5 54.5521 10.0373 53.9941 10.492C53.4361 10.926 52.8471 11.2877 52.2271 11.577C53.3225 11.949 54.2111 12.4553 54.8931 13.096C55.5751 13.716 56.0711 14.4393 56.3811 15.266C56.7118 16.0927 56.8771 16.9917 56.8771 17.963C56.8771 19.3063 56.5361 20.5153 55.8541 21.59C55.1721 22.644 54.2628 23.481 53.1261 24.101C51.9895 24.7003 50.7391 25 49.3751 25ZM62.9727 25C62.5181 25 62.1357 24.845 61.8257 24.535C61.5157 24.225 61.3607 23.8427 61.3607 23.388V2.401C61.3607 1.92567 61.5157 1.54333 61.8257 1.254C62.1357 0.943999 62.5181 0.788999 62.9727 0.788999H68.5837C70.3611 0.788999 71.9731 1.08867 73.4197 1.688C74.8871 2.26667 76.1581 3.10367 77.2327 4.199C78.3074 5.27367 79.1341 6.54467 79.7127 8.012C80.2914 9.47933 80.5807 11.1017 80.5807 12.879C80.5807 14.6563 80.2914 16.289 79.7127 17.777C79.1341 19.2443 78.3074 20.5257 77.2327 21.621C76.1581 22.6957 74.8871 23.5327 73.4197 24.132C71.9731 24.7107 70.3611 25 68.5837 25H62.9727ZM64.5847 22.148H68.5837C70.3197 22.148 71.8491 21.7553 73.1717 20.97C74.5151 20.164 75.5691 19.0687 76.3337 17.684C77.0984 16.2787 77.4807 14.677 77.4807 12.879C77.4807 11.0603 77.0984 9.45867 76.3337 8.074C75.5691 6.68933 74.5151 5.60433 73.1717 4.819C71.8491 4.03367 70.3197 3.641 68.5837 3.641H64.5847V22.148ZM84.3824 25.496C83.8037 25.496 83.2974 25.2893 82.8634 24.876C82.45 24.442 82.2434 23.9357 82.2434 23.357C82.2434 22.7577 82.45 22.2513 82.8634 21.838C83.2974 21.404 83.8037 21.187 84.3824 21.187C84.9817 21.187 85.488 21.404 85.9014 21.838C86.3147 22.2513 86.5214 22.7577 86.5214 23.357C86.5214 23.9357 86.3147 24.442 85.9014 24.876C85.488 25.2893 84.9817 25.496 84.3824 25.496ZM92.3891 14.398C92.3891 13.158 92.6887 12.0523 93.2881 11.081C93.9081 10.089 94.7347 9.30367 95.7681 8.725C96.8014 8.14633 97.9381 7.857 99.1781 7.857C100.418 7.857 101.338 8.06367 101.937 8.477C102.557 8.86967 102.795 9.345 102.65 9.903C102.588 10.1923 102.464 10.4197 102.278 10.585C102.113 10.7297 101.916 10.8227 101.689 10.864C101.462 10.9053 101.214 10.895 100.945 10.833C99.6224 10.5643 98.4341 10.5437 97.3801 10.771C96.3261 10.9983 95.4891 11.422 94.8691 12.042C94.2697 12.662 93.9701 13.4473 93.9701 14.398H92.3891ZM92.4201 25C91.9241 25 91.5417 24.876 91.2731 24.628C91.0044 24.3593 90.8701 23.9667 90.8701 23.45V9.593C90.8701 9.097 91.0044 8.71467 91.2731 8.446C91.5417 8.17733 91.9241 8.043 92.4201 8.043C92.9367 8.043 93.3191 8.17733 93.5671 8.446C93.8357 8.694 93.9701 9.07633 93.9701 9.593V23.45C93.9701 23.946 93.8357 24.3283 93.5671 24.597C93.3191 24.8657 92.9367 25 92.4201 25ZM113.076 25.155C111.65 25.155 110.369 24.8553 109.232 24.256C108.116 23.636 107.228 22.737 106.566 21.559C105.926 20.381 105.605 18.9343 105.605 17.219V9.593C105.605 9.13833 105.75 8.76633 106.039 8.477C106.349 8.167 106.732 8.012 107.186 8.012C107.641 8.012 108.013 8.167 108.302 8.477C108.612 8.76633 108.767 9.13833 108.767 9.593V17.219C108.767 18.3763 108.984 19.3373 109.418 20.102C109.852 20.846 110.441 21.404 111.185 21.776C111.929 22.1273 112.766 22.303 113.696 22.303C114.585 22.303 115.37 22.1273 116.052 21.776C116.755 21.4247 117.313 20.9493 117.726 20.35C118.14 19.7507 118.346 19.079 118.346 18.335H120.299C120.299 19.6163 119.979 20.7737 119.338 21.807C118.718 22.8403 117.861 23.6567 116.765 24.256C115.691 24.8553 114.461 25.155 113.076 25.155ZM119.927 25C119.473 25 119.09 24.8553 118.78 24.566C118.491 24.256 118.346 23.8737 118.346 23.419V9.593C118.346 9.11767 118.491 8.73533 118.78 8.446C119.09 8.15667 119.473 8.012 119.927 8.012C120.403 8.012 120.785 8.15667 121.074 8.446C121.364 8.73533 121.508 9.11767 121.508 9.593V23.419C121.508 23.8737 121.364 24.256 121.074 24.566C120.785 24.8553 120.403 25 119.927 25Z" fill="#333333"/>
</svg>
