<svg width="79" height="17" viewBox="0 0 79 17" fill="none" xmlns="http://www.w3.org/2000/svg">
<path d="M8.21219 16.2C7.03885 16.2 5.96552 16.0067 4.99219 15.62C4.01885 15.22 3.17885 14.6667 2.47219 13.96C1.77885 13.24 1.23885 12.3933 0.852188 11.42C0.465521 10.4333 0.272188 9.35333 0.272188 8.18C0.272188 7.00667 0.465521 5.93333 0.852188 4.96C1.23885 3.98667 1.77885 3.14667 2.47219 2.44C3.17885 1.72 4.01885 1.16667 4.99219 0.779999C5.96552 0.38 7.03885 0.18 8.21219 0.18C9.38552 0.18 10.4522 0.38 11.4122 0.779999C12.3855 1.16667 13.2255 1.72 13.9322 2.44C14.6389 3.14667 15.1855 3.98667 15.5722 4.96C15.9589 5.93333 16.1522 7.00667 16.1522 8.18C16.1522 9.35333 15.9589 10.4333 15.5722 11.42C15.1855 12.3933 14.6389 13.24 13.9322 13.96C13.2255 14.6667 12.3855 15.22 11.4122 15.62C10.4522 16.0067 9.38552 16.2 8.21219 16.2ZM8.21219 14.32C9.07885 14.32 9.87219 14.1667 10.5922 13.86C11.3255 13.54 11.9589 13.1067 12.4922 12.56C13.0255 12 13.4322 11.3467 13.7122 10.6C14.0055 9.85333 14.1522 9.04667 14.1522 8.18C14.1522 7.31333 14.0055 6.50667 13.7122 5.76C13.4322 5.01333 13.0255 4.36667 12.4922 3.82C11.9589 3.26 11.3255 2.82667 10.5922 2.52C9.87219 2.21333 9.07885 2.06 8.21219 2.06C7.34552 2.06 6.54552 2.21333 5.81219 2.52C5.09219 2.82667 4.46552 3.26 3.93219 3.82C3.41219 4.36667 3.00552 5.01333 2.71219 5.76C2.41885 6.50667 2.27219 7.31333 2.27219 8.18C2.27219 9.04667 2.41885 9.85333 2.71219 10.6C3.00552 11.3467 3.41219 12 3.93219 12.56C4.46552 13.1067 5.09219 13.54 5.81219 13.86C6.54552 14.1667 7.34552 14.32 8.21219 14.32ZM23.1902 16C22.5235 16 21.9235 15.8333 21.3902 15.5C20.8568 15.1533 20.4368 14.6867 20.1302 14.1C19.8235 13.5133 19.6702 12.8533 19.6702 12.12V2.58C19.6702 2.28667 19.7635 2.04667 19.9502 1.86C20.1368 1.67333 20.3768 1.58 20.6702 1.58C20.9635 1.58 21.2035 1.67333 21.3902 1.86C21.5768 2.04667 21.6702 2.28667 21.6702 2.58V12.12C21.6702 12.6533 21.8168 13.1 22.1102 13.46C22.4035 13.82 22.7635 14 23.1902 14H23.8702C24.1102 14 24.3102 14.0933 24.4702 14.28C24.6435 14.4667 24.7302 14.7067 24.7302 15C24.7302 15.2933 24.6168 15.5333 24.3902 15.72C24.1768 15.9067 23.8968 16 23.5502 16H23.1902ZM18.7502 7.18C18.4702 7.18 18.2435 7.1 18.0702 6.94C17.8968 6.78 17.8102 6.58 17.8102 6.34C17.8102 6.07333 17.8968 5.86 18.0702 5.7C18.2435 5.54 18.4702 5.46 18.7502 5.46H23.3702C23.6502 5.46 23.8768 5.54 24.0502 5.7C24.2235 5.86 24.3102 6.07333 24.3102 6.34C24.3102 6.58 24.2235 6.78 24.0502 6.94C23.8768 7.1 23.6502 7.18 23.3702 7.18H18.7502ZM31.6775 16C30.6775 16 29.7908 15.7933 29.0175 15.38C28.2442 14.9533 27.6375 14.38 27.1975 13.66C26.7575 12.9267 26.5375 12.1067 26.5375 11.2C26.5375 10.8933 26.6242 10.6467 26.7975 10.46C26.9842 10.26 27.2042 10.16 27.4575 10.16C27.7242 10.16 27.9442 10.26 28.1175 10.46C28.2908 10.6467 28.3775 10.8933 28.3775 11.2C28.3775 11.7467 28.5175 12.2533 28.7975 12.72C29.0775 13.1733 29.4575 13.54 29.9375 13.82C30.4175 14.0867 30.9575 14.22 31.5575 14.22C32.4375 14.22 33.1442 13.98 33.6775 13.5C34.2242 13.0067 34.4975 12.32 34.4975 11.44C34.4975 10.88 34.3775 10.38 34.1375 9.94C33.8975 9.48667 33.5708 9.12667 33.1575 8.86C32.7442 8.59333 32.2775 8.46 31.7575 8.46C31.4642 8.46 31.2175 8.36 31.0175 8.16C30.8308 7.96 30.7375 7.71333 30.7375 7.42C30.7375 7.12667 30.8308 6.88667 31.0175 6.7C31.2175 6.5 31.4642 6.4 31.7575 6.4C32.1308 6.4 32.4908 6.30667 32.8375 6.12C33.1842 5.92 33.4708 5.66 33.6975 5.34C33.9242 5.00667 34.0375 4.63333 34.0375 4.22C34.0375 3.63333 33.8242 3.14 33.3975 2.74C32.9708 2.34 32.4242 2.14 31.7575 2.14C31.2508 2.14 30.7842 2.24 30.3575 2.44C29.9442 2.64 29.6108 2.90667 29.3575 3.24C29.1175 3.57333 28.9975 3.94667 28.9975 4.36C28.9975 4.66667 28.9108 4.92667 28.7375 5.14C28.5642 5.34 28.3442 5.44 28.0775 5.44C27.8242 5.44 27.6042 5.34667 27.4175 5.16C27.2442 4.96 27.1575 4.71333 27.1575 4.42C27.1575 3.64667 27.3575 2.95333 27.7575 2.34C28.1575 1.72667 28.7042 1.24667 29.3975 0.899999C30.0908 0.539999 30.8642 0.359999 31.7175 0.359999C32.5042 0.359999 33.2108 0.533332 33.8375 0.879999C34.4775 1.21333 34.9775 1.67333 35.3375 2.26C35.7108 2.83333 35.8975 3.48667 35.8975 4.22C35.8975 4.74 35.7775 5.2 35.5375 5.6C35.3108 6 35.0175 6.34667 34.6575 6.64C34.2975 6.92 33.9175 7.15333 33.5175 7.34C34.2242 7.58 34.7975 7.90667 35.2375 8.32C35.6775 8.72 35.9975 9.18667 36.1975 9.72C36.4108 10.2533 36.5175 10.8333 36.5175 11.46C36.5175 12.3267 36.2975 13.1067 35.8575 13.8C35.4175 14.48 34.8308 15.02 34.0975 15.42C33.3642 15.8067 32.5575 16 31.6775 16ZM40.4502 16C40.1568 16 39.9102 15.9 39.7102 15.7C39.5102 15.5 39.4102 15.2533 39.4102 14.96V1.42C39.4102 1.11333 39.5102 0.866666 39.7102 0.679999C39.9102 0.48 40.1568 0.38 40.4502 0.38H44.0702C45.2168 0.38 46.2568 0.573333 47.1902 0.959999C48.1368 1.33333 48.9568 1.87333 49.6502 2.58C50.3435 3.27333 50.8768 4.09333 51.2502 5.04C51.6235 5.98667 51.8102 7.03333 51.8102 8.18C51.8102 9.32667 51.6235 10.38 51.2502 11.34C50.8768 12.2867 50.3435 13.1133 49.6502 13.82C48.9568 14.5133 48.1368 15.0533 47.1902 15.44C46.2568 15.8133 45.2168 16 44.0702 16H40.4502ZM41.4902 14.16H44.0702C45.1902 14.16 46.1768 13.9067 47.0302 13.4C47.8968 12.88 48.5768 12.1733 49.0702 11.28C49.5635 10.3733 49.8102 9.34 49.8102 8.18C49.8102 7.00667 49.5635 5.97333 49.0702 5.08C48.5768 4.18667 47.8968 3.48667 47.0302 2.98C46.1768 2.47333 45.1902 2.22 44.0702 2.22H41.4902V14.16ZM54.2628 16.32C53.8895 16.32 53.5628 16.1867 53.2828 15.92C53.0161 15.64 52.8828 15.3133 52.8828 14.94C52.8828 14.5533 53.0161 14.2267 53.2828 13.96C53.5628 13.68 53.8895 13.54 54.2628 13.54C54.6495 13.54 54.9761 13.68 55.2428 13.96C55.5095 14.2267 55.6428 14.5533 55.6428 14.94C55.6428 15.3133 55.5095 15.64 55.2428 15.92C54.9761 16.1867 54.6495 16.32 54.2628 16.32ZM59.4284 9.16C59.4284 8.36 59.6218 7.64667 60.0084 7.02C60.4084 6.38 60.9418 5.87333 61.6084 5.5C62.2751 5.12667 63.0084 4.94 63.8084 4.94C64.6084 4.94 65.2018 5.07333 65.5884 5.34C65.9884 5.59333 66.1418 5.9 66.0484 6.26C66.0084 6.44667 65.9284 6.59333 65.8084 6.7C65.7018 6.79333 65.5751 6.85333 65.4284 6.88C65.2818 6.90667 65.1218 6.9 64.9484 6.86C64.0951 6.68667 63.3284 6.67333 62.6484 6.82C61.9684 6.96667 61.4284 7.24 61.0284 7.64C60.6418 8.04 60.4484 8.54667 60.4484 9.16H59.4284ZM59.4484 16C59.1284 16 58.8818 15.92 58.7084 15.76C58.5351 15.5867 58.4484 15.3333 58.4484 15V6.06C58.4484 5.74 58.5351 5.49333 58.7084 5.32C58.8818 5.14667 59.1284 5.06 59.4484 5.06C59.7818 5.06 60.0284 5.14667 60.1884 5.32C60.3618 5.48 60.4484 5.72667 60.4484 6.06V15C60.4484 15.32 60.3618 15.5667 60.1884 15.74C60.0284 15.9133 59.7818 16 59.4484 16ZM72.775 16.1C71.855 16.1 71.0283 15.9067 70.295 15.52C69.575 15.12 69.0017 14.54 68.575 13.78C68.1617 13.02 67.955 12.0867 67.955 10.98V6.06C67.955 5.76667 68.0483 5.52667 68.235 5.34C68.435 5.14 68.6817 5.04 68.975 5.04C69.2683 5.04 69.5083 5.14 69.695 5.34C69.895 5.52667 69.995 5.76667 69.995 6.06V10.98C69.995 11.7267 70.135 12.3467 70.415 12.84C70.695 13.32 71.075 13.68 71.555 13.92C72.035 14.1467 72.575 14.26 73.175 14.26C73.7483 14.26 74.255 14.1467 74.695 13.92C75.1483 13.6933 75.5083 13.3867 75.775 13C76.0417 12.6133 76.175 12.18 76.175 11.7H77.435C77.435 12.5267 77.2283 13.2733 76.815 13.94C76.415 14.6067 75.8617 15.1333 75.155 15.52C74.4617 15.9067 73.6683 16.1 72.775 16.1ZM77.195 16C76.9017 16 76.655 15.9067 76.455 15.72C76.2683 15.52 76.175 15.2733 76.175 14.98V6.06C76.175 5.75333 76.2683 5.50667 76.455 5.32C76.655 5.13333 76.9017 5.04 77.195 5.04C77.5017 5.04 77.7483 5.13333 77.935 5.32C78.1217 5.50667 78.215 5.75333 78.215 6.06V14.98C78.215 15.2733 78.1217 15.52 77.935 15.72C77.7483 15.9067 77.5017 16 77.195 16Z" fill="#FCF8F3"/>
</svg>
